<?xml version="1.0" encoding="UTF-8"?>
<svg version="1.1" xmlns="http://www.w3.org/2000/svg" width="200" height="108">
<path d="M0 0 C2.41906313 0.88184971 4.58154255 0.96563916 7.1484375 1.08984375 C10.8680658 1.36725895 11.67023249 1.45874648 14.5859375 4.02734375 C15.9609375 6.71484375 15.9609375 6.71484375 15.9609375 10.71484375 C16.86585937 10.77091797 16.86585937 10.77091797 17.7890625 10.828125 C22.49516396 11.2152398 25.30561165 11.56370078 28.9609375 14.71484375 C29.9509375 15.02421875 30.9409375 15.33359375 31.9609375 15.65234375 C35.43767069 16.88368676 36.85841227 17.67786286 38.9609375 20.71484375 C39.38391657 22.98887974 39.5846483 25.18588625 39.6875 27.49609375 C39.82005656 29.72886787 39.82005656 29.72886787 40.96484375 31.5 C42.45098968 34.80448919 42.28964632 38.0961284 42.2734375 41.65234375 C42.28955078 42.35552734 42.30566406 43.05871094 42.32226562 43.78320312 C42.32647464 48.27422189 41.79618066 51.1920705 38.9609375 54.71484375 C37.8471875 55.27171875 36.7334375 55.82859375 35.5859375 56.40234375 C31.21925589 58.6178601 29.98987166 62.08392875 28.19921875 66.47265625 C26.70446516 69.17924476 25.86391263 69.73206571 22.9609375 70.71484375 C20.86860916 71.13330942 18.76164137 71.48184286 16.6484375 71.77734375 C15.49214844 71.94105469 14.33585937 72.10476562 13.14453125 72.2734375 C11.56865234 72.49193359 11.56865234 72.49193359 9.9609375 72.71484375 C8.1046875 73.02421875 8.1046875 73.02421875 6.2109375 73.33984375 C2.11242639 73.81274888 -1.91890316 73.79892863 -6.0390625 73.71484375 C-6.0390625 75.03484375 -6.0390625 76.35484375 -6.0390625 77.71484375 C-5.7090625 77.38484375 -5.3790625 77.05484375 -5.0390625 76.71484375 C-1.12313734 76.18085396 0.452392 76.32917824 3.64453125 78.75 C6.50685152 82.41357687 6.549669 85.08639111 6.2734375 89.52734375 C6.25087891 90.22021484 6.22832031 90.91308594 6.20507812 91.62695312 C6.14656411 93.32385948 6.0568923 95.01964236 5.9609375 96.71484375 C3.6509375 96.71484375 1.3409375 96.71484375 -1.0390625 96.71484375 C-1.3690625 92.42484375 -1.6990625 88.13484375 -2.0390625 83.71484375 C-3.3590625 83.71484375 -4.6790625 83.71484375 -6.0390625 83.71484375 C-6.3690625 88.00484375 -6.6990625 92.29484375 -7.0390625 96.71484375 C-9.3490625 96.71484375 -11.6590625 96.71484375 -14.0390625 96.71484375 C-14.5340625 82.85484375 -14.5340625 82.85484375 -15.0390625 68.71484375 C-15.6990625 68.71484375 -16.3590625 68.71484375 -17.0390625 68.71484375 C-17.0390625 68.05484375 -17.0390625 67.39484375 -17.0390625 66.71484375 C-18.1115625 66.50859375 -19.1840625 66.30234375 -20.2890625 66.08984375 C-24.94680964 64.38200313 -25.90078014 63.14979976 -28.0390625 58.71484375 C-28.60360077 56.13989941 -29.04371538 53.56163303 -29.47265625 50.9609375 C-29.88494051 48.51645622 -29.88494051 48.51645622 -32.1015625 46.65234375 C-34.75300897 44.00089728 -34.75848586 41.76010789 -35.15625 38.12890625 C-35.0390625 35.71484375 -35.0390625 35.71484375 -34.046875 32.99609375 C-32.74506891 28.75765533 -32.89560959 24.98667551 -33.0390625 20.58984375 C-33.36852348 10.39302643 -33.36852348 10.39302643 -31.0390625 7.71484375 C-28.796875 7.09765625 -28.796875 7.09765625 -26.1640625 6.83984375 C-21.72169917 6.18195097 -21.72169917 6.18195097 -18.7265625 2.71484375 C-18.1696875 1.72484375 -17.6128125 0.73484375 -17.0390625 -0.28515625 C-11.31836221 -3.68665372 -5.75827971 -2.82702872 0 0 Z M-29.0390625 36.71484375 C-28.0390625 38.71484375 -28.0390625 38.71484375 -28.0390625 38.71484375 Z M-14.0390625 69.71484375 C-14.0390625 70.04484375 -14.0390625 70.37484375 -14.0390625 70.71484375 C-12.0590625 70.71484375 -10.0790625 70.71484375 -8.0390625 70.71484375 C-8.0390625 70.38484375 -8.0390625 70.05484375 -8.0390625 69.71484375 C-10.0190625 69.71484375 -11.9990625 69.71484375 -14.0390625 69.71484375 Z " fill="#F5F4EC" transform="translate(96.0390625,2.28515625)"/>
<path d="M0 0 C2.41906313 0.88184971 4.58154255 0.96563916 7.1484375 1.08984375 C10.8680658 1.36725895 11.67023249 1.45874648 14.5859375 4.02734375 C15.9609375 6.71484375 15.9609375 6.71484375 15.9609375 10.71484375 C16.86585937 10.77091797 16.86585937 10.77091797 17.7890625 10.828125 C22.49516396 11.2152398 25.30561165 11.56370078 28.9609375 14.71484375 C29.9509375 15.02421875 30.9409375 15.33359375 31.9609375 15.65234375 C35.43767069 16.88368676 36.85841227 17.67786286 38.9609375 20.71484375 C39.38391657 22.98887974 39.5846483 25.18588625 39.6875 27.49609375 C39.82005656 29.72886787 39.82005656 29.72886787 40.96484375 31.5 C42.45098968 34.80448919 42.28964632 38.0961284 42.2734375 41.65234375 C42.28955078 42.35552734 42.30566406 43.05871094 42.32226562 43.78320312 C42.32647464 48.27422189 41.79618066 51.1920705 38.9609375 54.71484375 C37.8471875 55.27171875 36.7334375 55.82859375 35.5859375 56.40234375 C31.21925589 58.6178601 29.98987166 62.08392875 28.19921875 66.47265625 C26.70446516 69.17924476 25.86391263 69.73206571 22.9609375 70.71484375 C20.86860916 71.13330942 18.76164137 71.48184286 16.6484375 71.77734375 C15.49214844 71.94105469 14.33585937 72.10476562 13.14453125 72.2734375 C11.56865234 72.49193359 11.56865234 72.49193359 9.9609375 72.71484375 C8.1046875 73.02421875 8.1046875 73.02421875 6.2109375 73.33984375 C2.11242639 73.81274888 -1.91890316 73.79892863 -6.0390625 73.71484375 C-6.0390625 75.03484375 -6.0390625 76.35484375 -6.0390625 77.71484375 C-5.7090625 77.38484375 -5.3790625 77.05484375 -5.0390625 76.71484375 C-1.12313734 76.18085396 0.452392 76.32917824 3.64453125 78.75 C6.50685152 82.41357687 6.549669 85.08639111 6.2734375 89.52734375 C6.25087891 90.22021484 6.22832031 90.91308594 6.20507812 91.62695312 C6.14656411 93.32385948 6.0568923 95.01964236 5.9609375 96.71484375 C3.6509375 96.71484375 1.3409375 96.71484375 -1.0390625 96.71484375 C-1.3690625 92.42484375 -1.6990625 88.13484375 -2.0390625 83.71484375 C-3.3590625 83.71484375 -4.6790625 83.71484375 -6.0390625 83.71484375 C-6.3690625 88.00484375 -6.6990625 92.29484375 -7.0390625 96.71484375 C-9.3490625 96.71484375 -11.6590625 96.71484375 -14.0390625 96.71484375 C-14.5340625 82.85484375 -14.5340625 82.85484375 -15.0390625 68.71484375 C-15.6990625 68.71484375 -16.3590625 68.71484375 -17.0390625 68.71484375 C-17.0390625 68.05484375 -17.0390625 67.39484375 -17.0390625 66.71484375 C-18.1115625 66.50859375 -19.1840625 66.30234375 -20.2890625 66.08984375 C-24.94680964 64.38200313 -25.90078014 63.14979976 -28.0390625 58.71484375 C-28.60360077 56.13989941 -29.04371538 53.56163303 -29.47265625 50.9609375 C-29.88494051 48.51645622 -29.88494051 48.51645622 -32.1015625 46.65234375 C-34.75300897 44.00089728 -34.75848586 41.76010789 -35.15625 38.12890625 C-35.0390625 35.71484375 -35.0390625 35.71484375 -34.046875 32.99609375 C-32.74506891 28.75765533 -32.89560959 24.98667551 -33.0390625 20.58984375 C-33.36852348 10.39302643 -33.36852348 10.39302643 -31.0390625 7.71484375 C-28.796875 7.09765625 -28.796875 7.09765625 -26.1640625 6.83984375 C-21.72169917 6.18195097 -21.72169917 6.18195097 -18.7265625 2.71484375 C-18.1696875 1.72484375 -17.6128125 0.73484375 -17.0390625 -0.28515625 C-11.31836221 -3.68665372 -5.75827971 -2.82702872 0 0 Z M-12.8515625 6.52734375 C-14.6034967 11.22990398 -14.27376329 15.75135665 -14.0390625 20.71484375 C-14.42578125 20.23273437 -14.8125 19.750625 -15.2109375 19.25390625 C-15.73171875 18.62226563 -16.2525 17.990625 -16.7890625 17.33984375 C-17.29953125 16.71335937 -17.81 16.086875 -18.3359375 15.44140625 C-20.12105731 13.63172057 -21.71855894 12.7136692 -24.0390625 11.71484375 C-26.51962044 15.43568066 -26.82501102 18.40357273 -26.0390625 22.71484375 C-24.63759688 25.59102232 -22.94777024 28.15172193 -21.0390625 30.71484375 C-22.0290625 31.27171875 -23.0190625 31.82859375 -24.0390625 32.40234375 C-27.27367194 34.36658782 -27.27367194 34.36658782 -27.5390625 37.33984375 C-27.22798011 39.89010466 -27.22798011 39.89010466 -25.0390625 41.71484375 C-24.0490625 41.71484375 -23.0590625 41.71484375 -22.0390625 41.71484375 C-22.00167969 42.69066406 -21.96429688 43.66648438 -21.92578125 44.671875 C-21.82716797 46.58033203 -21.82716797 46.58033203 -21.7265625 48.52734375 C-21.66855469 49.79191406 -21.61054687 51.05648437 -21.55078125 52.359375 C-21.30868758 55.65453308 -21.30868758 55.65453308 -19.625 57.6796875 C-18.06244902 58.94208866 -18.06244902 58.94208866 -15.9765625 58.46484375 C-14.00122466 57.73516407 -14.00122466 57.73516407 -12.0390625 56.71484375 C-11.9153125 57.82859375 -11.9153125 57.82859375 -11.7890625 58.96484375 C-10.85494375 62.38994585 -9.9333237 63.658395 -7.0390625 65.71484375 C-3.03443696 66.22452336 -0.87565467 66.23273414 2.5859375 64.08984375 C3.3696875 63.63609375 4.1534375 63.18234375 4.9609375 62.71484375 C6.63393709 63.3654547 8.29952987 64.03517699 9.9609375 64.71484375 C13.84684383 64.95594013 17.5012965 64.89563824 20.6171875 62.375 C24.30178712 57.99418243 25.08265265 55.31374087 24.9609375 49.71484375 C25.8684375 49.79734375 26.7759375 49.87984375 27.7109375 49.96484375 C30.95750213 49.96066191 30.95750213 49.96066191 33.3359375 48.27734375 C35.71345616 44.52817971 35.80849569 41.04142649 34.9609375 36.71484375 C33.94 35.72484375 33.94 35.72484375 32.8984375 34.71484375 C32.2590625 34.05484375 31.6196875 33.39484375 30.9609375 32.71484375 C31.0307329 30.3374381 31.3967241 28.1603441 31.89453125 25.8359375 C32.1978972 23.60410202 32.1978972 23.60410202 30.49609375 21.9375 C29.98949219 21.53402344 29.48289063 21.13054688 28.9609375 20.71484375 C26.9809375 21.70484375 25.0009375 22.69484375 22.9609375 23.71484375 C22.6515625 22.91046875 22.3421875 22.10609375 22.0234375 21.27734375 C21.19758405 18.8240397 21.19758405 18.8240397 19.9609375 17.71484375 C15.02986106 17.27652584 14.15278569 17.57095761 9.9609375 20.71484375 C9.4659375 14.77484375 9.4659375 14.77484375 8.9609375 8.71484375 C6.4859375 8.21984375 6.4859375 8.21984375 3.9609375 7.71484375 C1.12682595 10.04833575 1.12682595 10.04833575 -1.0390625 12.71484375 C-1.4928125 11.76609375 -1.9465625 10.81734375 -2.4140625 9.83984375 C-3.84144504 6.71170696 -3.84144504 6.71170696 -6.0390625 4.71484375 C-9.29346699 4.13071987 -10.47817613 4.15395738 -12.8515625 6.52734375 Z M-29.0390625 36.71484375 C-28.0390625 38.71484375 -28.0390625 38.71484375 -28.0390625 38.71484375 Z M-14.0390625 69.71484375 C-14.0390625 70.04484375 -14.0390625 70.37484375 -14.0390625 70.71484375 C-12.0590625 70.71484375 -10.0790625 70.71484375 -8.0390625 70.71484375 C-8.0390625 70.38484375 -8.0390625 70.05484375 -8.0390625 69.71484375 C-10.0190625 69.71484375 -11.9990625 69.71484375 -14.0390625 69.71484375 Z " fill="#B0B439" transform="translate(96.0390625,2.28515625)"/>
<path d="M0 0 C2.93810672 0.58762134 3.75705731 1.09307914 5.5 3.5 C6.6875 6.1875 6.6875 6.1875 7.5 8.5 C8.5828125 7.2315625 8.5828125 7.2315625 9.6875 5.9375 C10.615625 5.133125 11.54375 4.32875 12.5 3.5 C14.975 3.995 14.975 3.995 17.5 4.5 C17.995 10.44 17.995 10.44 18.5 16.5 C19.82 15.51 21.14 14.52 22.5 13.5 C25.5 14.5 25.5 14.5 26.5 16.5 C25.5925 16.78875 24.685 17.0775 23.75 17.375 C19.09569831 20.41819726 18.14376016 24.34632845 16.5 29.5 C14.44872156 26.42308234 14.22739128 25.56355001 14.0859375 22.05078125 C14.02792969 20.77944336 14.02792969 20.77944336 13.96875 19.48242188 C13.9378125 18.60134766 13.906875 17.72027344 13.875 16.8125 C13.81699219 15.47348633 13.81699219 15.47348633 13.7578125 14.10742188 C13.66359782 11.9051538 13.57798412 9.70289278 13.5 7.5 C13.04625 8.7375 12.5925 9.975 12.125 11.25 C11.0615993 14.09245495 9.94807517 16.82663046 8.5 19.5 C8.02949219 18.42878906 7.55898437 17.35757812 7.07421875 16.25390625 C6.4458649 14.85652231 5.81692833 13.45940029 5.1875 12.0625 C4.7244043 11.00192383 4.7244043 11.00192383 4.25195312 9.91992188 C3.41351217 8.07535177 2.4625796 6.28293652 1.5 4.5 C0.51 4.17 -0.48 3.84 -1.5 3.5 C-1.92960391 11.26469281 -1.80752951 17.70319098 3.48046875 23.7734375 C5.43702445 25.74730785 7.42744462 27.64897666 9.5 29.5 C8.84 29.83 8.18 30.16 7.5 30.5 C-0.43820305 25.48349668 -7.9196864 20.17293119 -13.5 12.5 C-13.23172506 18.9385986 -11.06353371 22.94601343 -6.5 27.5 C-1.11027694 31.52737609 3.83268447 33.13632824 10.5 33.5 C10.5 33.83 10.5 34.16 10.5 34.5 C8.41731407 34.58126087 6.33371342 34.63930839 4.25 34.6875 C2.50976562 34.73970703 2.50976562 34.73970703 0.734375 34.79296875 C-2.84034904 34.46917128 -3.78619845 33.67104124 -6.5 31.5 C-8.85929642 31.14042111 -8.85929642 31.14042111 -11.25 31.3125 C-12.04921875 31.33957031 -12.8484375 31.36664063 -13.671875 31.39453125 C-14.27515625 31.42933594 -14.8784375 31.46414062 -15.5 31.5 C-15.5 32.49 -15.5 33.48 -15.5 34.5 C-11.54 34.5 -7.58 34.5 -3.5 34.5 C-4.82 35.49 -6.14 36.48 -7.5 37.5 C-7.995 37.995 -7.995 37.995 -8.5 38.5 C-7.736875 38.149375 -6.97375 37.79875 -6.1875 37.4375 C-3.5 36.5 -3.5 36.5 -0.5 37.5 C-1.44875 38.098125 -2.3975 38.69625 -3.375 39.3125 C-6.63964197 41.31562526 -6.63964197 41.31562526 -8.5 44.5 C-8.66699232 47.62521833 -8.66699232 47.62521833 -8.5 50.5 C-5.83515572 48.09047014 -4.17253317 45.47326069 -2.375 42.375 C0.41666667 37.58333333 0.41666667 37.58333333 1.5 36.5 C3.83297433 36.45907063 6.16705225 36.45758277 8.5 36.5 C8.5 37.82 8.5 39.14 8.5 40.5 C7.571875 40.726875 6.64375 40.95375 5.6875 41.1875 C2.41642854 42.24449768 2.41642854 42.24449768 0.625 44.75 C-0.7234576 48.04622969 -1.08772519 49.97364885 -0.5 53.5 C1.672635 56.07285724 3.47993838 57.98996919 6.5 59.5 C6.5 60.16 6.5 60.82 6.5 61.5 C4.3125 61.875 4.3125 61.875 1.5 61.5 C-1.3125 58.6875 -1.3125 58.6875 -3.5 55.5 C-3.5 54.51 -3.5 53.52 -3.5 52.5 C-4.49 53.16 -5.48 53.82 -6.5 54.5 C-9.46076291 54.14111965 -10.34658021 53.65341979 -12.5 51.5 C-12.80059943 49.13490639 -12.99515012 46.75558119 -13.125 44.375 C-13.19976562 43.09367187 -13.27453125 41.81234375 -13.3515625 40.4921875 C-13.40054688 39.50476562 -13.44953125 38.51734375 -13.5 37.5 C-14.139375 37.355625 -14.77875 37.21125 -15.4375 37.0625 C-17.5 36.5 -17.5 36.5 -18.5 35.5 C-18.9375 33.1875 -18.9375 33.1875 -18.5 30.5 C-15.5 28.1875 -15.5 28.1875 -12.5 26.5 C-12.8609375 26.0153125 -13.221875 25.530625 -13.59375 25.03125 C-17.15092305 19.89311114 -18.14491328 16.7341617 -17.5 10.5 C-17.17 9.84 -16.84 9.18 -16.5 8.5 C-13.587425 8.58566397 -11.93201976 9.07910955 -9.83203125 11.125 C-8.33908228 12.88391375 -6.89563738 14.66313019 -5.5 16.5 C-5.53480469 15.76394531 -5.56960937 15.02789062 -5.60546875 14.26953125 C-5.82457616 6.37123075 -5.82457616 6.37123075 -4.3125 2.3125 C-2.5 0.5 -2.5 0.5 0 0 Z " fill="#F8F7EE" transform="translate(87.5,6.5)"/>
<path d="M0 0 C0.99 0 1.98 0 3 0 C2.835 0.763125 2.67 1.52625 2.5 2.3125 C1.90854604 5.03596236 1.90854604 5.03596236 2 8 C3.051875 7.9175 4.10375 7.835 5.1875 7.75 C9 8 9 8 11.9375 9.5625 C14 12 14 12 14.4375 15.625 C14 19 14 19 12 21 C8.375 21.125 8.375 21.125 5 21 C3.95994298 17.61981469 3.91995518 14.5219721 4 11 C-1.44893869 9.80123349 -4.22169095 10.08639692 -9 13 C-7.9275 13.391875 -6.855 13.78375 -5.75 14.1875 C-1.41801455 16.02903227 0.90058741 18.80117481 3 23 C3.29876919 26.36115342 3.13451674 28.64392627 1.9375 31.8125 C0 34 0 34 -3.3125 35.125 C-8.32430934 34.95510816 -9.54912552 33.53303816 -13 30 C-14.71928489 26.56143022 -14.38974252 22.76751104 -14 19 C-12.5 15.9375 -12.5 15.9375 -11 14 C-12.65 14 -14.3 14 -16 14 C-16.33 15.98 -16.66 17.96 -17 20 C-17.66 19.67 -18.32 19.34 -19 19 C-18.67 17.68 -18.34 16.36 -18 15 C-20.91422277 14.88343109 -22.39263759 14.83009695 -25 16 C-26.83043921 18.3731106 -28.17701951 20.79205247 -29.54296875 23.45703125 C-31.06411848 26.11190652 -32.75593224 27.93853304 -35 30 C-36 29 -36 29 -36.375 26.3125 C-35.86195568 21.78060849 -34.10632266 20.2616388 -31 17 C-32.98 17.66 -34.96 18.32 -37 19 C-36.67 18.01 -36.34 17.02 -36 16 C-34.68 15.34 -33.36 14.68 -32 14 C-35.3 13.67 -38.6 13.34 -42 13 C-42 12.01 -42 11.02 -42 10 C-38.94306678 8.47153339 -36.37015453 8.76757555 -33 9 C-32.40445313 9.49242187 -31.80890625 9.98484375 -31.1953125 10.4921875 C-26.6256881 13.63075515 -20.31239365 12.42832289 -15 12 C-8.77979314 10.84275221 -5.5565332 8.02098805 -2 3 C-1.34 2.01 -0.68 1.02 0 0 Z " fill="#3E3D3A" transform="translate(114,28)"/>
<path d="M0 0 C1.796875 0.08984375 1.796875 0.08984375 4 1 C5.703125 3.94140625 5.703125 3.94140625 7.25 7.5625 C7.77078125 8.76003906 8.2915625 9.95757812 8.828125 11.19140625 C9.21484375 12.11824219 9.6015625 13.04507812 10 14 C10.26554687 13.28972656 10.53109375 12.57945313 10.8046875 11.84765625 C11.33449219 10.46900391 11.33449219 10.46900391 11.875 9.0625 C12.22304687 8.14597656 12.57109375 7.22945312 12.9296875 6.28515625 C14 4 14 4 16 3 C16.33 11.91 16.66 20.82 17 30 C9.55196078 31.48960784 3.66154243 30.35472349 -2.8125 26.3125 C-7.38050075 22.97341273 -11.19624143 19.43863631 -12.51953125 13.77734375 C-12.77293634 11.86160126 -12.89843376 9.92975847 -13 8 C-10.18575211 10.09058415 -7.97359372 12.03395094 -5.8125 14.8125 C-2.36971639 19.12701408 2.29627187 22.18608831 7 25 C7.66 25 8.32 25 9 25 C8.52949219 24.5875 8.05898437 24.175 7.57421875 23.75 C2.49305473 19.03703627 -0.55101304 14.80331334 -1.20703125 7.78515625 C-1.26394561 4.92391617 -1.29640565 2.59281129 0 0 Z " fill="#B6BA53" transform="translate(86,10)"/>
<path d="M0 0 C3 0 6 0 9 0 C10.093125 -0.12375 11.18625 -0.2475 12.3125 -0.375 C16 0 16 0 18.9375 2.4375 C21.33873709 5.79287103 21.67127402 8.8191759 21.41796875 12.87890625 C20.76366912 16.19932399 19.57002858 17.83576541 17 20 C13.35814676 21.0405295 11.60702852 21.20234284 8 20 C7.67 22.97 7.34 25.94 7 29 C4.69 29 2.38 29 0 29 C0 19.43 0 9.86 0 0 Z M9 6 C6.73160017 7.83265325 6.73160017 7.83265325 6.8125 10.5625 C6.72996677 12.94689723 6.72996677 12.94689723 8 14 C10.5 14.16666667 10.5 14.16666667 13 14 C14.27003323 12.94689723 14.27003323 12.94689723 14.1875 10.5625 C14.26839983 7.83265325 14.26839983 7.83265325 12 6 C11.01 6 10.02 6 9 6 Z " fill="#000000" transform="translate(179,79)"/>
<path d="M0 0 C2.31 0 4.62 0 7 0 C7.33 2.31 7.66 4.62 8 7 C8.33 6.67 8.66 6.34 9 6 C12.3125 5.625 12.3125 5.625 16 6 C19.14062931 8.88583399 19.94737569 10.49217539 20.390625 14.76953125 C20.36431837 16.11774585 20.31701804 17.46569518 20.25 18.8125 C20.23195312 19.50537109 20.21390625 20.19824219 20.1953125 20.91210938 C20.14851064 22.60867664 20.07677624 24.30452476 20 26 C17.69 26 15.38 26 13 26 C12.67 21.71 12.34 17.42 12 13 C10.68 13 9.36 13 8 13 C7.67 17.29 7.34 21.58 7 26 C4.69 26 2.38 26 0 26 C0 17.42 0 8.84 0 0 Z " fill="#000000" transform="translate(130,73)"/>
<path d="M0 0 C3.0625 1.75 3.0625 1.75 5 4 C5 5.32 5 6.64 5 8 C2.69 8 0.38 8 -2 8 C-2 7.34 -2 6.68 -2 6 C-2.99 6 -3.98 6 -5 6 C-5 6.66 -5 7.32 -5 8 C-4.45730469 8.25394531 -3.91460937 8.50789063 -3.35546875 8.76953125 C-2.28232422 9.28580078 -2.28232422 9.28580078 -1.1875 9.8125 C-0.12595703 10.31716797 -0.12595703 10.31716797 0.95703125 10.83203125 C3.07030351 12.04019264 4.50494382 13.07778491 6 15 C5.87924274 18.38120325 5.63338348 20.94436087 3.875 23.875 C0.95166666 25.629 -1.62424411 25.82539194 -5 26 C-8.41112203 25.06969399 -10.88915856 23.88851986 -13 21 C-13 19.68 -13 18.36 -13 17 C-10.69 17 -8.38 17 -6 17 C-5.67 17.66 -5.34 18.32 -5 19 C-4.01 19.33 -3.02 19.66 -2 20 C-2.66167557 16.94664276 -2.66167557 16.94664276 -4.77734375 15.90234375 C-5.49019531 15.58394531 -6.20304687 15.26554687 -6.9375 14.9375 C-9.50887099 13.77548298 -10.97683978 13.02316022 -13 11 C-13.42037462 7.21662839 -13.51868776 4.87951402 -11.5625 1.5625 C-7.75498786 -0.75915374 -4.34432874 -0.77301223 0 0 Z " fill="#010000" transform="translate(120,74)"/>
<path d="M0 0 C3.86105548 2.43103493 5.66159852 3.82687486 6.9375 8.25 C6.958125 9.1575 6.97875 10.065 7 11 C5.18884044 12.81115956 2.38721773 12.38199448 -0.0625 12.5625 C-1.16722656 12.64628906 -2.27195312 12.73007813 -3.41015625 12.81640625 C-4.26480469 12.87699219 -5.11945312 12.93757813 -6 13 C-5.01 13.33 -4.02 13.66 -3 14 C-2.34 13.67 -1.68 13.34 -1 13 C1.3329866 12.95977609 3.66706666 12.95679753 6 13 C5.06117241 16.47366207 4.30769804 17.78532695 1.3125 19.875 C-2.69251519 21.23519384 -4.93783125 21.12838021 -9 20 C-11.70736436 18.29008567 -12.72843872 17.00196749 -13.56640625 13.91015625 C-14.16609266 10.11635062 -14.26803795 7.66304126 -12.8125 4.0625 C-9.07187866 -0.19406911 -5.60451943 -0.67640752 0 0 Z M-6 6 C-6.33 6.66 -6.66 7.32 -7 8 C-5.02 8 -3.04 8 -1 8 C-1 7.34 -1 6.68 -1 6 C-2.65 6 -4.3 6 -6 6 Z " fill="#B0B436" transform="translate(50,79)"/>
<path d="M0 0 C2.8100346 1.79363911 4.50940468 3.01880935 6 6 C6.65271451 10.74616694 6.69934049 13.98277746 3.9375 18 C0.40055558 20.40813237 -1.72563406 21 -6 21 C-9.91908675 19.7187601 -11.55932365 18.62547612 -13.9375 15.25 C-15.25603257 11.21684156 -15.2545729 9.05891233 -14 5 C-9.60935655 -0.03317664 -6.58282375 -0.94040339 0 0 Z M-6 6 C-7.19838209 8.32854463 -7.19838209 8.32854463 -8 11 C-7.01 12.485 -7.01 12.485 -6 14 C-4.35 13.67 -2.7 13.34 -1 13 C-1 11.02 -1 9.04 -1 7 C-2.65 6.67 -4.3 6.34 -6 6 Z " fill="#000000" transform="translate(169,79)"/>
<path d="M0 0 C2.6327755 1.49190612 3.00773119 3.24387637 3.875 6.0625 C4.74125 5.5365625 4.74125 5.5365625 5.625 5 C8.24871272 3.90678637 9.26350805 4.07193409 11.875 5.0625 C12.875 6.0625 12.875 6.0625 12.9375 8.875 C12.916875 9.926875 12.89625 10.97875 12.875 12.0625 C12.875 13.3825 12.875 14.7025 12.875 16.0625 C13.36097656 16.54847656 13.84695312 17.03445312 14.34765625 17.53515625 C16.35858891 19.54608891 16.30777516 20.6981679 16.3125 23.5 C16.20870526 26.85420882 16.04364667 27.83201622 14 30.625 C11.875 32.0625 11.875 32.0625 9.875 32.0625 C10.205 31.381875 10.535 30.70125 10.875 30 C12.08558915 26.44389438 12.28976049 23.79534441 11.875 20.0625 C10.47369315 17.92674561 10.47369315 17.92674561 7.875 17.0625 C5.15440731 16.83405329 2.6158346 16.92545827 -0.125 17.0625 C-0.125 13.26692119 0.37678941 11.43347383 1.875 8.0625 C-1.36710456 8.8021234 -1.36710456 8.8021234 -3 11.875 C-5.10972897 15.03959346 -7.00468419 16.92754708 -10.125 19.0625 C-10.785 19.0625 -11.445 19.0625 -12.125 19.0625 C-11.03553179 12.61170141 -8.1320627 0.23917831 0 0 Z " fill="#F5F5E9" transform="translate(115.125,19.9375)"/>
<path d="M0 0 C2.9375 2.3125 2.9375 2.3125 5 5 C5 5.99 5 6.98 5 8 C4.01 8.495 4.01 8.495 3 9 C3.515625 9.556875 4.03125 10.11375 4.5625 10.6875 C6 13 6 13 6 15.5625 C5 18 5 18 2.9375 19.875 C-0.97351335 21.3728349 -4.03537498 21.38223878 -8 20 C-10.5 17.5625 -10.5 17.5625 -12 15 C-12 14.34 -12 13.68 -12 13 C-10.68 12.67 -9.36 12.34 -8 12 C-8.680625 11.443125 -9.36125 10.88625 -10.0625 10.3125 C-12 8 -12 8 -12 5.4375 C-9.68893951 -0.19570994 -5.73145474 -0.8044147 0 0 Z M-5 5 C-5 5.66 -5 6.32 -5 7 C-2.525 7.495 -2.525 7.495 0 8 C-0.66 7.01 -1.32 6.02 -2 5 C-2.99 5 -3.98 5 -5 5 Z M-5 13 C-5 13.66 -5 14.32 -5 15 C-3.68 15 -2.36 15 -1 15 C-1 14.34 -1 13.68 -1 13 C-2.32 13 -3.64 13 -5 13 Z " fill="#B0B436" transform="translate(72,79)"/>
<path d="M0 0 C5.28 0 10.56 0 16 0 C16 1.98 16 3.96 16 6 C12.7 6 9.4 6 6 6 C6 7.32 6 8.64 6 10 C8.64 10 11.28 10 14 10 C14 11.98 14 13.96 14 16 C11.36 16 8.72 16 6 16 C6 18.97 6 21.94 6 25 C4.02 25 2.04 25 0 25 C0 16.75 0 8.5 0 0 Z " fill="#B0B436" transform="translate(0,74)"/>
<path d="M0 0 C1.65 0 3.3 0 5 0 C4.67773438 0.67933594 4.35546875 1.35867187 4.0234375 2.05859375 C2.4623125 6.5453385 2.64979575 11.00642657 2.5390625 15.72265625 C1.91262889 19.53119101 1.05835422 20.72013594 -2 23 C-5 23.5625 -5 23.5625 -8 23 C-10.83944877 20.45944057 -11.86005025 18.8222048 -12.5 15.0625 C-11.85877868 11.13501941 -10.58844578 9.00819374 -8 6 C-5.375 5.0625 -5.375 5.0625 -3 5 C-2.34 5.33 -1.68 5.66 -1 6 C-0.67 4.02 -0.34 2.04 0 0 Z " fill="#AEB33A" transform="translate(98,42)"/>
<path d="M0 0 C3.46482088 0.54350131 3.86875389 0.83485202 6 3.375 C8.90500049 7.5250007 9.5854664 9.42592841 9.1875 14.5 C8.125 17.3125 8.125 17.3125 6.1875 19.5 C2.8125 20.625 2.8125 20.625 -0.8125 20.5 C-3.75 18.0625 -3.75 18.0625 -5.8125 15.5 C-5.4825 14.84 -5.1525 14.18 -4.8125 13.5 C-4.833125 12.71625 -4.85375 11.9325 -4.875 11.125 C-4.80847779 8.33106728 -4.21973152 6.87470319 -2.8125 4.5 C-3.4725 3.84 -4.1325 3.18 -4.8125 2.5 C-2.8125 0.5 -2.8125 0.5 0 0 Z " fill="#090808" transform="translate(107.8125,42.5)"/>
<path d="M0 0 C2.31 0 4.62 0 7 0 C7.33 0.66 7.66 1.32 8 2 C8.66 1.34 9.32 0.68 10 0 C11.32 0 12.64 0 14 0 C14 2.31 14 4.62 14 7 C12.02 7.66 10.04 8.32 8 9 C7.67 12.63 7.34 16.26 7 20 C4.69 20 2.38 20 0 20 C0 13.4 0 6.8 0 0 Z " fill="#B0B436" transform="translate(20,79)"/>
<path d="M0 0 C2.81424789 2.09058415 5.02640628 4.03395094 7.1875 6.8125 C10.09888033 10.47730463 13.82039533 12.82503339 17.6953125 15.38671875 C19.70802642 16.79561849 21.33820098 18.20243308 23 20 C18.24518354 19.42365861 15.02951788 17.44931479 11 15 C13.64 16.65 16.28 18.3 19 20 C15 21 15 21 12.81640625 20.03125 C7.29881379 16.28272965 2.0699768 12.57756993 0.48046875 5.77734375 C0.22706366 3.86160126 0.10156624 1.92975847 0 0 Z " fill="#ADB344" transform="translate(73,18)"/>
<path d="M0 0 C3.96359827 -0.31087045 6.38933056 -0.32482417 9.9375 1.5625 C12 4 12 4 12.4375 7.625 C12 11 12 11 10 13 C6.375 13.125 6.375 13.125 3 13 C2.26010787 10.09375703 1.58349094 7.17849225 0.9375 4.25 C0.76089844 3.45078125 0.58429688 2.6515625 0.40234375 1.828125 C0.26957031 1.22484375 0.13679688 0.6215625 0 0 Z " fill="#AEB33B" transform="translate(116,36)"/>
<path d="M0 0 C-0.90901174 1.5877405 -1.82757924 3.17001197 -2.75 4.75 C-3.26046875 5.63171875 -3.7709375 6.5134375 -4.296875 7.421875 C-5.97712548 9.96537343 -7.77419032 11.92902925 -10 14 C-11 13 -11 13 -11.375 10.3125 C-10.87232011 5.87216096 -9.11877112 4.11877112 -6 1 C-2.54320988 -1.27160494 -2.54320988 -1.27160494 0 0 Z " fill="#B1B64C" transform="translate(89,44)"/>
<path d="M0 0 C-1.34621545 3.80863968 -3.05358737 6.65409851 -5.5625 9.8125 C-6.49255859 10.99779297 -6.49255859 10.99779297 -7.44140625 12.20703125 C-7.95574219 12.79871094 -8.47007813 13.39039063 -9 14 C-9.33 14 -9.66 14 -10 14 C-10.4560284 8.29964499 -9.60412752 5.45215753 -6 1 C-4 0 -4 0 0 0 Z " fill="#B2B750" transform="translate(115,23)"/>
<path d="M0 0 C1.65 0 3.3 0 5 0 C4.690625 0.639375 4.38125 1.27875 4.0625 1.9375 C2.68064597 5.92049104 2.3463457 9.81650849 2 14 C0 11 0 11 -1 9 C-5.54170996 10.90884692 -5.54170996 10.90884692 -10 13 C-8.84826645 10.53199953 -7.95216435 8.95216435 -6 7 C-3.375 6.875 -3.375 6.875 -1 7 C-0.67 4.69 -0.34 2.38 0 0 Z " fill="#BCBE80" transform="translate(98,42)"/>
<path d="M0 0 C0.99 0.66 1.98 1.32 3 2 C3 2.66 3 3.32 3 4 C3.66 4 4.32 4 5 4 C6.32 6.31 7.64 8.62 9 11 C4.91556885 12.53166168 1.20544343 11.63081652 -3 11 C-3 10.34 -3 9.68 -3 9 C-4.55855981 7.64287834 -4.55855981 7.64287834 -6.5 6.375 C-7.1496875 5.92898437 -7.799375 5.48296875 -8.46875 5.0234375 C-8.9740625 4.68570313 -9.479375 4.34796875 -10 4 C-6.28509783 4 -4.7489724 5.24902455 -1.71875 7.22265625 C0.1819554 8.31660845 0.1819554 8.31660845 3 7 C2.505 6.21625 2.01 5.4325 1.5 4.625 C0 2 0 2 0 0 Z " fill="#C7C97A" transform="translate(93,29)"/>
<path d="M0 0 C0.99 0 1.98 0 3 0 C2.47731534 2.76276177 1.89130413 5.3260876 1 8 C1.66 8.33 2.32 8.66 3 9 C3 9.66 3 10.32 3 11 C1.63875 10.690625 1.63875 10.690625 0.25 10.375 C-3.23138062 9.97330224 -4.0682833 10.38250113 -7 12 C-7.99 11.67 -8.98 11.34 -10 11 C-9.52949219 10.62488281 -9.05898437 10.24976563 -8.57421875 9.86328125 C-4.85971483 6.81015898 -2.45359995 4.17111992 0 0 Z " fill="#23221E" transform="translate(114,28)"/>
<path d="M0 0 C2 1 2 1 3.0703125 3.8359375 C3.59238281 5.58777344 3.59238281 5.58777344 4.125 7.375 C4.47820312 8.53773437 4.83140625 9.70046875 5.1953125 10.8984375 C6 14 6 14 6 17 C4.84545838 15.75803878 3.70167438 14.50607155 2.5625 13.25 C1.92441406 12.55390625 1.28632812 11.8578125 0.62890625 11.140625 C-1.01757933 8.97689815 -1.69261641 7.67862839 -2 5 C-1.0625 2.25 -1.0625 2.25 0 0 Z " fill="#BEC062" transform="translate(88,17)"/>
<path d="M0 0 C2.51083114 1.25541557 2.87125446 2.50063488 4 5 C3.34 5.66 2.68 6.32 2 7 C1.83318891 10.08347826 1.83318891 10.08347826 2 13 C1.01 13.33 0.02 13.66 -1 14 C-2.16983345 11.6603331 -2.1661241 10.16608473 -2.1875 7.5625 C-2.20167969 6.78003906 -2.21585937 5.99757813 -2.23046875 5.19140625 C-2 3 -2 3 0 0 Z " fill="#171616" transform="translate(102,44)"/>
<path d="M0 0 C0 3 0 6 0 9 C-0.886875 8.360625 -1.77375 7.72125 -2.6875 7.0625 C-5.69211428 5.19170243 -7.5510371 4.40576034 -11 4 C-7.64918101 0.31409911 -4.96535219 -1.77334007 0 0 Z " fill="#F4F4F2" transform="translate(115,38)"/>
<path d="M0 0 C3.4375 2 3.4375 2 6 4 C2.57310364 5.14229879 0.38897782 4.90861076 -3.1875 4.5625 C-4.81751953 4.40974609 -4.81751953 4.40974609 -6.48046875 4.25390625 C-7.31191406 4.17011719 -8.14335938 4.08632813 -9 4 C-9 3.01 -9 2.02 -9 1 C-5.89046621 -0.5547669 -3.43733239 -0.28644437 0 0 Z " fill="#ADB246" transform="translate(81,37)"/>
<path d="M0 0 C-0.75 4.75 -0.75 4.75 -3 7 C-6.625 7.125 -6.625 7.125 -10 7 C-9.34 5.35 -8.68 3.7 -8 2 C-7.34 2.33 -6.68 2.66 -6 3 C-5.071875 2.2575 -5.071875 2.2575 -4.125 1.5 C-2 0 -2 0 0 0 Z " fill="#B0B451" transform="translate(125,27)"/>
<path d="M0 0 C1.65 0.33 3.3 0.66 5 1 C5.33 5.62 5.66 10.24 6 15 C5.34 15 4.68 15 4 15 C4 11.7 4 8.4 4 5 C3.34 5 2.68 5 2 5 C1.67 4.01 1.34 3.02 1 2 C-0.32 2.99 -1.64 3.98 -3 5 C-1.125 1.125 -1.125 1.125 0 0 Z " fill="#F3F2E2" transform="translate(100,10)"/>
<path d="M0 0 C0 0.33 0 0.66 0 1 C-1.423125 1.37125 -1.423125 1.37125 -2.875 1.75 C-6.08246095 2.66955467 -6.08246095 2.66955467 -7.25 5.0625 C-7.4975 5.701875 -7.745 6.34125 -8 7 C-8.99 7.495 -8.99 7.495 -10 8 C-10.65213292 10.02463255 -10.65213292 10.02463255 -11 12 C-11.50341475 6.7141451 -10.26910671 4.13445849 -7 0 C-4.3333581 -1.33332095 -2.83319697 -0.67102033 0 0 Z " fill="#B7BB5F" transform="translate(97,48)"/>
<path d="M0 0 C1.32 0 2.64 0 4 0 C4.33 2.64 4.66 5.28 5 8 C4.01 8 3.02 8 2 8 C-0.1519437 4.77208445 -0.20086443 3.71599191 0 0 Z " fill="#D2D394" transform="translate(114,39)"/>
<path d="M0 0 C1.65 1.65 3.3 3.3 5 5 C4.34 6.65 3.68 8.3 3 10 C-0.00617269 6.99382731 0.40414684 4.17618402 0 0 Z " fill="#AFB546" transform="translate(73,18)"/>
<path d="M0 0 C0.99 0.33 1.98 0.66 3 1 C2.01 3.97 1.02 6.94 0 10 C-0.66 9.34 -1.32 8.68 -2 8 C-1.42307692 1.42307692 -1.42307692 1.42307692 0 0 Z " fill="#CCCBCA" transform="translate(103,46)"/>
<path d="M0 0 C1.485 0.99 1.485 0.99 3 2 C3 2.66 3 3.32 3 4 C3.66 4 4.32 4 5 4 C6.32 6.31 7.64 8.62 9 11 C6.2941403 10.32353508 4.48483064 9.64282657 2.77734375 7.37890625 C0 2.59072581 0 2.59072581 0 0 Z " fill="#CDCE86" transform="translate(93,29)"/>
<path d="M0 0 C0.33 0 0.66 0 1 0 C1 4.95 1 9.9 1 15 C0.67 15 0.34 15 0 15 C-0.33 12.03 -0.66 9.06 -1 6 C-1.99 6.495 -1.99 6.495 -3 7 C-1.125 1.125 -1.125 1.125 0 0 Z " fill="#BABD5B" transform="translate(101,13)"/>
<path d="M0 0 C1.65 0 3.3 0 5 0 C4.1875 2.4375 4.1875 2.4375 3 5 C2.01 5.33 1.02 5.66 0 6 C0 4.02 0 2.04 0 0 Z " fill="#F3F3F1" transform="translate(98,42)"/>
<path d="M0 0 C0.66 0 1.32 0 2 0 C2.75 2.25 2.75 2.25 3 5 C1.0625 7.3125 1.0625 7.3125 -1 9 C-1.125 2.25 -1.125 2.25 0 0 Z " fill="#ACB137" transform="translate(87,13)"/>
<path d="M0 0 C-4.75 4.875 -4.75 4.875 -7 6 C-6.75 3.625 -6.75 3.625 -6 1 C-2.69333333 -1.34666667 -2.69333333 -1.34666667 0 0 Z " fill="#BDC05C" transform="translate(89,44)"/>
<path d="M0 0 C1 2 1 2 0.1875 5.0625 C-1 8 -1 8 -3 9 C-3.1875 5.625 -3.1875 5.625 -3 2 C-2.01 1.34 -1.02 0.68 0 0 Z " fill="#C1C265" transform="translate(108,28)"/>
<path d="M0 0 C0.99 0 1.98 0 3 0 C3 0.99 3 1.98 3 3 C2.21625 3.309375 1.4325 3.61875 0.625 3.9375 C-1.92330128 4.92875038 -1.92330128 4.92875038 -4 6 C-2.84826645 3.53199953 -1.95216435 1.95216435 0 0 Z " fill="#F6F6E9" transform="translate(92,49)"/>
<path d="M0 0 C0.66 0 1.32 0 2 0 C1.5206753 4.31392226 0.2542015 6.16569547 -3 9 C-2 6 -1 3 0 0 Z " fill="#ABB23F" transform="translate(110,25)"/>
<path d="M0 0 C0.66 0 1.32 0 2 0 C3.38938077 1.96147874 4.7260411 3.96166576 6 6 C5.67 6.66 5.34 7.32 5 8 C2.5 5.6875 2.5 5.6875 0 3 C0 2.01 0 1.02 0 0 Z " fill="#A8AF3C" transform="translate(89,26)"/>
</svg>
